HIERARCHY
ROOT hip
{
  OFFSET 0.0 0.0 0.0
  CHANNELS 6 Xposition Yposition Zposition Zrotation Yrotation Xrotation
  JOINT torso
  {
    OFFSET 0.0 0.0 0.0
    CHANNELS 3 Zrotation Xrotation Yrotation
    JOINT neck
    {
      OFFSET -31.42098999999993 328.8025209999999 74.3554680000002
      CHANNELS 3 Zrotation Xrotation Yrotation
      JOINT head
      {
        OFFSET 3.3519900000001144 303.81732099999994 206.53942900000015
        CHANNELS 3 Zrotation Xrotation Yrotation
        End Site
        {
          OFFSET 0.0 0.0 0.0
        }
      }
    }
    JOINT left_collar
    {
      OFFSET -31.42098999999993 328.8025209999999 74.3554680000002
      CHANNELS 3 Zrotation Xrotation Yrotation
      JOINT left_upper_arm
      {
        OFFSET -124.490479 -8.162841999999841 8.226441000000023
        CHANNELS 3 Zrotation Xrotation Yrotation
        JOINT left_forearm
        {
          OFFSET -253.595764 -1.5758060000000569 105.0729980000001
          CHANNELS 3 Zrotation Xrotation Yrotation
          JOINT left_hand
          {
            OFFSET -269.48803699999996 0.1478270000000066 -55.346191999999974
            CHANNELS 3 Zrotation Xrotation Yrotation
            End Site
            {
              OFFSET 0.0 0.0 0.0
            }
          }
        }
      }
    }
    JOINT right_collar
    {
      OFFSET -31.42098999999993 328.8025209999999 74.3554680000002
      CHANNELS 3 Zrotation Xrotation Yrotation
      JOINT right_upper_arm
      {
        OFFSET 162.02484099999998 0.46441600000002836 2.2303470000001653
        CHANNELS 3 Zrotation Xrotation Yrotation
        JOINT right_forearm
        {
          OFFSET 240.01246700000004 -25.835875999999985 121.34179699999959
          CHANNELS 3 Zrotation Xrotation Yrotation
          JOINT right_hand
          {
            OFFSET 252.48539699999992 18.910399999999868 -67.53466800000001
            CHANNELS 3 Zrotation Xrotation Yrotation
            End Site
            {
              OFFSET 0.0 0.0 0.0
            }
          }
        }
      }
    }
  }
}
MOTION
Frames: 6
Frame Time: 0.01
-299.98417737240356 185.82062160818083 904.2038447982819 1.234863666824554 -6.4049234777663315 -2.1592531111803495 0.7338690507969106 -1.4939591114554671 -0.31755875497269415 -3.037153094482383 -2.7118444064439333 2.1330653411789933 0.0 0.0 0.0 6.371798604319549 -0.9504062539240681 11.302329512583492 37.2221254868798 8.974525551186074 18.518569541867695 43.76035218888667 -1.9240454224412955 -18.446393608366904 0.0 0.0 0.0 2.9298926618581387 -0.21241660685012398 6.0389427640482145 -33.47560291936032 8.10705078367854 -21.284248532343792 -58.39223931567868 -3.186367382473574 27.557008033669657 0.0 0.0 0.0
-301.1063363527038 186.25981747269674 901.8855185078672 1.5499002187297104 -6.242251322832357 -2.402283279520522 0.7148612186741885 -1.543048026288872 -0.3179736368700867 -3.0229625522435155 -2.930294555723855 2.1285640275481628 0.0 0.0 0.0 6.370730199569032 -0.9538107644987521 11.330644641837646 37.1814156833792 9.054640414112034 18.26598215399845 43.799775541633075 -1.8220720056642252 -18.704837812770915 0.0 0.0 0.0 2.9161033006568684 -0.21136978590097133 6.034434861216965 -33.552287029616515 8.288399254922563 -20.923292041395833 -58.231729014706794 -2.897798925052758 28.165052467346413 0.0 0.0 0.0
-302.11444222795046 186.68334024632128 899.6597739182075 1.871545493259735 -6.0945510959229425 -2.6581684016298683 0.6948525727017568 -1.5903454033389308 -0.3179518435144761 -3.0088743003640004 -3.1462539822299402 2.124032254302268 0.0 0.0 0.0 6.371388113575953 -0.9577239149190292 11.362667908980262 37.13559517789983 9.142178960090165 17.988609751260448 43.82046911229995 -1.7150776473704121 -18.97328972391836 0.0 0.0 0.0 2.9012208868067124 -0.21026149164558927 6.030285643084466 -33.63867826120291 8.474084405107567 -20.562005491091043 -58.06919512355111 -2.6088788937875624 28.77821573728405 0.0 0.0 0.0
-303.0073065964681 187.08757319309953 897.5301480569473 2.198706849142657 -5.963532371610762 -2.9259732806993037 0.673988969740013 -1.6348221957894336 -0.3174247375990916 -2.994784778905593 -3.359347395696938 2.1193902934143947 0.0 0.0 0.0 6.373789712791321 -0.9620866710212976 11.39789582554109 37.08355070480453 9.236381524889536 17.687597065715693 43.82258059895957 -1.6032051267979048 -19.25177481833762 0.0 0.0 0.0 2.8851853124035958 -0.20908234628258132 6.02630484880123 -33.73401281328553 8.662827375314132 -20.20301264210732 -57.906489701722286 -2.3199409383186675 29.395903823898013 0.0 0.0 0.0
-303.7853196126049 187.46940864470346 895.4981706516669 2.5302410729201394 -5.850555372564754 -3.2044633816849957 0.6524315431614673 -1.6756176824271987 -0.3163453452859484 -2.9805555009985807 -3.5692128093183926 2.1145341606757517 0.0 0.0 0.0 6.377888457223415 -0.9668143465146779 11.435629707118519 37.02436671723812 9.336427556499144 17.36435802346398 43.80635499234394 -1.4867532136810444 -19.539963904290605 0.0 0.0 0.0 2.86795046631532 -0.20782098549291442 6.022194488753358 -33.83739041577102 8.853224080032167 -19.849042953899477 -57.74558784412161 -2.0313063938497398 30.017434407154155 0.0 0.0 0.0
-304.45042267897924 187.82625097343654 893.5633957353646 2.8649685782217484 -5.756623656875191 -3.4921213209854463 0.6303562418538681 -1.7120533466855707 -0.3146895041965684 -2.966017016203259 -3.7754992566482524 2.109338169832194 0.0 0.0 0.0 6.383572146782518 -0.9717990856419992 11.47499856582818 36.9573766009583 9.441463505503055 17.02054196175943 43.77211717717669 -1.3661880714317411 -19.837137198216904 0.0 0.0 0.0 2.849493045300477 -0.20646538623670477 6.017571759476859 -33.94779622428377 9.043764814973558 -19.502890204988617 -57.58856795007397 -1.7433036500111567 30.641984188089765 0.0 0.0 0.0
